<svg width="53" height="52" viewBox="0 0 53 52" fill="none" xmlns="http://www.w3.org/2000/svg">
<g clip-path="url(#clip0_33_195)">
<path d="M37.7959 52C29.0625 52 20.3291 52 11.5957 52C11.5115 51.848 11.3582 51.9023 11.2333 51.8833C7.56623 51.3092 4.61846 49.5449 2.43613 46.5387C0.470943 43.8325 -0.162856 40.7626 0.0339337 37.4783C0.101792 36.8594 0.145222 36.2364 0.241581 35.6216C1.16039 29.7234 3.7648 24.7317 8.25296 20.7552C11.0745 18.2553 14.2992 16.5073 17.9309 15.5016C18.216 15.4229 18.5417 15.4052 18.748 15.1379C19.0072 15.4283 18.8117 15.5803 18.5905 15.773C16.1653 17.8943 14.8787 20.5788 14.6452 23.7844C14.614 24.2038 14.6697 24.3924 15.1854 24.3911C22.4083 24.3707 29.6298 24.3721 36.8526 24.3897C37.3168 24.3911 37.4172 24.2621 37.3873 23.8265C37.1688 20.7566 35.98 18.1494 33.7379 16.0309C33.0607 15.3903 33.058 15.393 33.5832 14.6031C35.3407 14.6113 37.0983 14.6289 38.8544 14.6262C41.5824 14.6208 43.7009 13.4726 45.1979 11.1926C47.3761 7.877 46.2809 3.16898 42.8839 1.10879C42.2582 0.728782 41.5511 0.54285 40.9336 0.162842C46.152 0.84007 50.5899 4.98894 51.715 10.229C51.8114 10.6796 51.7964 11.1573 52.0109 11.5821C52.0109 12.4615 52.0109 13.3423 52.0109 14.2218C51.9769 14.3331 51.9281 14.443 51.9131 14.557C51.7937 15.5165 51.5996 16.4584 51.2508 17.3609C49.5259 21.8219 46.3474 24.6204 41.6814 25.7211C40.2713 26.0536 38.8246 25.9287 37.4023 26.1065C37.2801 25.926 37.0928 26.0061 36.9368 26.0061C29.6664 26.002 22.396 26.0061 15.1257 25.9925C14.7199 25.9912 14.6262 26.1079 14.6289 26.4987C14.6439 30.0152 14.6371 33.533 14.6371 37.0494C14.6371 38.4025 15.2329 38.9996 16.5806 39.001C19.7251 39.0064 22.8697 39.0119 26.0143 39.0173C26.0061 39.5072 26.0292 39.9917 26.1011 40.4803C26.8951 45.8547 29.8645 49.4512 34.9404 51.3431C35.8687 51.6878 36.8513 51.757 37.7959 52ZM13.0166 32.5015C13.0166 31.1823 13.0221 29.8632 13.0153 28.544C13.0085 27.1013 11.9716 26.0156 10.6036 26.0047C9.21519 25.9925 8.1471 27.0878 8.14303 28.5454C8.1376 31.1837 8.1376 33.822 8.14303 36.4617C8.14574 37.8976 9.19077 38.9901 10.5534 39.0024C11.9418 39.0146 13.0071 37.9207 13.0139 36.4604C13.0221 35.1398 13.0166 33.8207 13.0166 32.5015Z" fill="#32DB82"/>
<path d="M37.4063 26.1064C38.8273 25.9286 40.2754 26.0535 41.6855 25.721C46.3515 24.6203 49.5286 21.8218 51.2549 17.3608C51.6037 16.4583 51.7978 15.5151 51.9172 14.5569C51.9308 14.4429 51.981 14.333 52.0149 14.2217C52.0149 22.989 52.0149 31.7563 52.0149 40.5236C51.8209 40.7408 51.8779 41.0272 51.8249 41.2769C50.7433 46.4518 47.6774 49.8393 42.6681 51.4909C41.9393 51.7312 41.1671 51.7665 40.4383 51.9985C39.5575 51.9985 38.678 51.9985 37.7972 51.9985C36.8526 51.7556 35.87 51.6864 34.9458 51.3417C29.87 49.4498 26.9005 45.8546 26.1065 40.4789C26.0346 39.9903 26.0115 39.5058 26.0197 39.0158C29.1276 39.0104 32.2369 39.0036 35.3448 38.9995C36.8336 38.9968 37.3887 38.4417 37.3914 36.9502C37.3941 33.3374 37.4009 29.7219 37.4063 26.1064ZM43.8882 32.534C43.8882 31.2148 43.8923 29.8956 43.8868 28.5751C43.8814 27.0985 42.8459 26.006 41.4575 26.0033C40.0718 25.9992 39.0173 27.0972 39.0146 28.5615C39.0092 31.1836 39.0105 33.8057 39.0146 36.4277C39.0173 37.8989 40.0596 38.9968 41.4439 39.0009C42.831 39.005 43.8814 37.9084 43.8868 36.4413C43.8936 35.1384 43.8882 33.8369 43.8882 32.534Z" fill="#19C269"/>
<path d="M0.0339252 37.4783C0.0284965 37.1064 0.0176392 36.7346 0.0176392 36.3627C0.0176392 28.5277 0.0176392 20.6914 0.0176392 12.8565C0.0176392 6.92973 4.28459 1.60419 10.0648 0.320305C11.0229 0.108586 11.9906 -0.00134476 12.9773 1.24153e-05C21.7609 0.00951261 30.5431 0.00679827 39.3267 0.00408393C39.8696 0.00408393 40.4043 0.0542992 40.935 0.16423C41.5525 0.544238 42.2596 0.73017 42.8852 1.11018C46.2822 3.17036 47.3775 7.87839 45.1992 11.194C43.7009 13.474 41.5824 14.6222 38.8558 14.6276C37.0983 14.6303 35.3407 14.6127 33.5845 14.6045C34.2373 13.4604 34.8915 12.3163 35.5443 11.1736C35.6882 10.9212 35.8266 10.666 35.7275 10.3607C35.6189 10.0227 35.3869 9.81236 35.0367 9.77164C34.6336 9.7255 34.3703 9.94672 34.179 10.2806C33.4285 11.5835 32.6698 12.8823 31.9288 14.1906C31.7849 14.4444 31.6696 14.5136 31.3832 14.367C27.8057 12.5335 24.2187 12.5443 20.6426 14.3711C20.3467 14.5217 20.2381 14.4295 20.0997 14.1838C19.6043 13.2989 19.0927 12.4249 18.5851 11.5468C18.315 11.0786 18.0558 10.6022 17.7626 10.1489C17.5089 9.75671 17.0773 9.66035 16.7 9.86664C16.3064 10.0824 16.172 10.5181 16.3743 10.9565C16.4448 11.1098 16.5358 11.2523 16.6199 11.3989C17.3297 12.6461 18.0395 13.8934 18.7493 15.1406C18.543 15.408 18.2173 15.4256 17.9323 15.5043C14.3005 16.51 11.0759 18.2594 8.25431 20.7579C3.76615 24.7344 1.16173 29.7261 0.24293 35.6244C0.14657 36.2365 0.103141 36.8594 0.0339252 37.4783Z" fill="#4BF49A"/>
<path d="M37.4064 26.1065C37.4009 29.722 37.3942 33.3375 37.3901 36.953C37.3887 38.4445 36.8323 38.9996 35.3435 39.0023C32.2356 39.0064 29.1263 39.0131 26.0183 39.0186C22.8738 39.0131 19.7292 39.0077 16.5847 39.0023C15.237 38.9996 14.6425 38.4038 14.6412 37.0507C14.6412 33.5342 14.6466 30.0165 14.633 26.5C14.6317 26.1092 14.724 25.9938 15.1298 25.9938C22.4001 26.0074 29.6705 26.0033 36.9409 26.0074C37.0969 26.006 37.2829 25.9259 37.4064 26.1065Z" fill="#FEFEFE"/>
<path d="M18.7493 15.138C18.0395 13.8908 17.3297 12.6435 16.6199 11.3963C16.5358 11.2497 16.4449 11.1058 16.3743 10.9538C16.1721 10.5168 16.3064 10.0798 16.7 9.86403C17.0773 9.65774 17.5089 9.7541 17.7627 10.1463C18.0558 10.5996 18.3137 11.076 18.5851 11.5442C19.0927 12.4223 19.6044 13.2963 20.0997 14.1812C20.2382 14.4282 20.3467 14.5191 20.6426 14.3685C24.2187 12.5431 27.8057 12.5309 31.3832 14.3644C31.671 14.511 31.785 14.4418 31.9288 14.188C32.6698 12.8797 33.4285 11.5822 34.179 10.278C34.3704 9.9441 34.6337 9.72288 35.0367 9.76903C35.3869 9.80974 35.6203 10.0201 35.7275 10.358C35.8253 10.6634 35.6882 10.9185 35.5443 11.171C34.8915 12.3151 34.2374 13.4592 33.5846 14.6019C33.0593 15.3918 33.0607 15.3891 33.7393 16.0297C35.9813 18.1482 37.1702 20.7567 37.3887 23.8252C37.4199 24.2609 37.3181 24.3898 36.854 24.3885C29.6311 24.3722 22.4096 24.3708 15.1868 24.3898C14.671 24.3912 14.6168 24.2025 14.6466 23.7832C14.88 20.5775 16.1666 17.8931 18.5919 15.7718C18.8118 15.5804 19.0072 15.4284 18.7493 15.138ZM21.9509 19.9057C21.9495 19.238 21.385 18.6816 20.7186 18.6924C20.0495 18.7033 19.5039 19.2692 19.5175 19.9383C19.5311 20.5843 20.0753 21.119 20.724 21.1258C21.3931 21.1313 21.9523 20.5748 21.9509 19.9057ZM32.5124 19.8949C32.5043 19.2271 31.9342 18.6761 31.2692 18.6938C30.6002 18.7114 30.06 19.2828 30.079 19.9505C30.098 20.5952 30.649 21.1272 31.2977 21.1258C31.9655 21.1258 32.5205 20.5626 32.5124 19.8949Z" fill="#FDFEFD"/>
<path d="M13.0166 32.5017C13.0166 33.8208 13.0221 35.14 13.0153 36.4592C13.0085 37.9195 11.9431 39.0134 10.5547 39.0011C9.19077 38.9889 8.14711 37.8978 8.14439 36.4605C8.13896 33.8222 8.13896 31.1838 8.14439 28.5441C8.14711 27.0865 9.21656 25.9913 10.6049 26.0035C11.973 26.0157 13.0085 27.1001 13.0166 28.5428C13.0221 29.862 13.0166 31.1811 13.0166 32.5017Z" fill="#FDFEFE"/>
<path d="M43.8882 32.5341C43.8882 33.837 43.8923 35.1399 43.8868 36.4414C43.8814 37.9085 42.831 39.0038 41.4439 39.0011C40.0596 38.997 39.0173 37.899 39.0146 36.4279C39.0105 33.8058 39.0105 31.1837 39.0146 28.5617C39.0173 27.0973 40.0718 25.9994 41.4575 26.0034C42.8459 26.0075 43.8814 27.1 43.8868 28.5753C43.8923 29.8944 43.8882 31.215 43.8882 32.5341Z" fill="#FDFEFE"/>
<path d="M21.9509 19.9056C21.9522 20.5747 21.3931 21.1311 20.7254 21.1257C20.0766 21.1203 19.531 20.5842 19.5188 19.9382C19.5053 19.2691 20.0508 18.7045 20.7199 18.6923C21.3849 18.6814 21.9495 19.2392 21.9509 19.9056Z" fill="#35DC83"/>
<path d="M32.5124 19.8949C32.5205 20.5626 31.9655 21.1258 31.2977 21.1258C30.649 21.1258 30.098 20.5952 30.079 19.9505C30.0586 19.2828 30.6001 18.7114 31.2692 18.6938C31.9342 18.6761 32.5056 19.2271 32.5124 19.8949Z" fill="#35DC83"/>
</g>
<defs>
<clipPath id="clip0_33_195">
<rect width="52.0136" height="52" fill="white"/>
</clipPath>
</defs>
</svg>
