<svg width="52" height="52" viewBox="0 0 52 52" fill="none" xmlns="http://www.w3.org/2000/svg">
<g clip-path="url(#clip0_33_206)">
<path d="M51.9837 11.6747C51.9837 12.7913 51.9837 13.9079 51.9837 15.0245C51.8006 15.0408 51.8033 15.1792 51.7734 15.3162C51.6744 15.7761 51.5808 16.2401 51.4437 16.6906C50.7762 18.8831 49.623 20.7703 47.9596 22.3618C45.5039 24.7117 42.576 25.907 39.2032 25.9775C37.4625 26.0141 35.7855 26.2841 34.1656 26.915C33.4994 24.462 33.8996 22.2641 35.7394 20.423C36.704 19.457 36.6416 18.4123 35.5142 17.6783C33.2077 16.1777 30.7344 15.9105 28.2176 16.9809C26.4945 17.7149 24.9112 17.7977 23.1773 16.9959C21.305 16.1302 19.3472 16.2266 17.5007 17.1831C14.4778 18.7488 13.1211 21.4175 13.0302 24.6696C12.885 29.8754 14.8631 34.2849 18.5399 37.9359C19.3852 38.7757 20.4394 39.1271 21.6537 38.8992C22.2886 38.7798 22.8937 38.579 23.488 38.3375C24.2925 38.0091 25.1215 37.8056 25.9952 37.807C25.9545 39.2261 25.9695 40.6494 26.3548 42.0237C27.8011 47.1889 31.1115 50.4437 36.3526 51.7041C36.5534 51.753 36.856 51.6458 36.9605 51.9551C36.894 51.9619 36.8261 51.9755 36.7597 51.9755C28.725 51.9755 20.689 52.0067 12.6544 51.9606C7.1107 51.928 2.05682 47.9744 0.516914 42.6356C-0.0895516 40.5313 -0.00679007 38.389 0.0244151 36.2426C0.16823 36.2114 0.192652 36.1056 0.204862 35.9781C0.487065 33.2849 1.26448 30.7302 2.45435 28.3084C4.07566 25.0061 6.317 22.1813 9.20416 19.8966C11.9651 17.7122 15.0599 16.1804 18.4816 15.3257C20.8179 14.7423 23.1936 14.5469 25.595 14.6134C25.5638 14.8983 25.5258 15.1819 25.5027 15.4668C25.4471 16.1723 25.732 16.4138 26.4375 16.2917C27.6898 16.0746 28.7467 15.4858 29.6612 14.6202C32.585 14.6188 35.5087 14.6175 38.4339 14.6148C38.9902 14.6148 39.541 14.6026 40.0973 14.5225C43.4172 14.0504 46.0927 11.2243 46.2854 7.76048C46.4699 4.45545 44.603 1.66055 41.5096 0.44355C41.3889 0.396064 41.2329 0.390637 41.222 0.207476C41.2722 0.208833 41.3251 0.200692 41.3726 0.211546C46.5079 1.34986 49.8794 4.41746 51.4844 9.43064C51.7205 10.1701 51.7571 10.9434 51.9837 11.6747Z" fill="#2D2D2D"/>
<path d="M41.2234 0.213009C41.2342 0.39617 41.3902 0.401597 41.511 0.449083C44.6044 1.66608 46.4699 4.46098 46.2867 7.76601C46.0941 11.2284 43.4186 14.0559 40.0986 14.528C39.5424 14.6067 38.9915 14.6189 38.4353 14.6203C35.5115 14.623 32.5877 14.6244 29.6625 14.6257C29.8742 14.3639 30.0872 14.1034 30.2989 13.8415C31.1387 12.8009 31.6203 11.6205 31.7072 10.2814C31.7587 9.48365 31.5104 9.26657 30.7249 9.47823C29.2718 9.87033 28.0344 10.6043 27.0467 11.763C26.3304 12.6042 25.9098 13.581 25.5964 14.6189C23.1949 14.5525 20.8193 14.7478 18.4829 15.3312C15.0612 16.1846 11.9665 17.7177 9.20552 19.9021C6.31701 22.1869 4.07566 25.0103 2.45571 28.3139C1.2672 30.7357 0.489785 33.2905 0.206225 35.9836C0.192658 36.1112 0.169593 36.217 0.0257782 36.2482C0.0189944 36.0623 0.00542698 35.8778 0.00542698 35.6919C0.00271349 28.1281 0.00407024 20.5656 0 13.0017C0 12.2229 0.0407024 11.4523 0.200798 10.6871C1.27805 5.52603 4.34701 2.15858 9.33577 0.506066C10.0671 0.263209 10.8404 0.217079 11.5758 0C21.1869 0 30.7981 0 40.4093 0C40.6468 0.202155 40.9737 0.0610536 41.2234 0.213009Z" fill="#464646"/>
<path d="M34.1656 26.9152C35.7855 26.2829 37.4611 26.0129 39.2032 25.9777C42.5774 25.9071 45.5053 24.7118 47.9596 22.3619C49.623 20.7705 50.7776 18.8832 51.4437 16.6907C51.5808 16.2403 51.6744 15.7763 51.7734 15.3164C51.8033 15.1793 51.8006 15.0423 51.9837 15.0247C51.9837 23.5192 51.9837 32.0138 51.9837 40.5071C51.7856 40.7214 51.8453 41.0077 51.7951 41.256C50.9105 45.7278 48.3897 48.9162 44.2842 50.8645C41.9547 51.9689 39.4745 52.0815 36.9591 51.958C36.8546 51.6487 36.5507 51.7545 36.3513 51.707C31.1102 50.4452 27.8011 47.1918 26.3534 42.0266C25.9681 40.6509 25.9532 39.229 25.9939 37.8099C27.0115 37.7678 27.9571 38.05 28.8851 38.434C31.1414 39.3688 32.6827 39.0391 34.3148 37.2685C35.502 35.981 36.4653 34.5374 37.2169 32.9554C37.8342 31.6529 37.6836 31.0872 36.5426 30.2256C35.4097 29.3709 34.5563 28.3086 34.1656 26.9152Z" fill="#141414"/>
<path d="M34.1656 26.915C34.5563 28.307 35.4097 29.3707 36.5439 30.2268C37.6836 31.0884 37.8356 31.6528 37.2182 32.9566C36.468 34.5386 35.5047 35.9822 34.3162 37.2697C32.684 39.0403 31.1427 39.3699 28.8865 38.4351C27.9584 38.0498 27.0128 37.7676 25.9952 37.811C25.1215 37.8083 24.2912 38.0132 23.488 38.3415C22.8937 38.5844 22.2886 38.7838 21.6536 38.9032C20.4394 39.1312 19.3852 38.7784 18.5399 37.9399C14.8631 34.2889 12.885 29.8781 13.0302 24.6737C13.1211 21.4202 14.4792 18.7528 17.5006 17.1871C19.3485 16.2293 21.305 16.133 23.1773 16.9999C24.9112 17.8018 26.4945 17.7176 28.2176 16.985C30.7343 15.9145 33.2077 16.1818 35.5142 17.6824C36.6416 18.415 36.704 19.4611 35.7394 20.4271C33.8996 22.2641 33.4994 24.462 34.1656 26.915Z" fill="#FDFDFD"/>
<path d="M25.5964 14.6176C25.9098 13.5797 26.3304 12.6014 27.0467 11.7616C28.0331 10.6043 29.2718 9.86895 30.7249 9.47685C31.5104 9.2652 31.7601 9.48228 31.7072 10.28C31.6203 11.6192 31.1387 12.8009 30.2989 13.8401C30.0872 14.102 29.8742 14.3625 29.6625 14.6243C28.7467 15.4886 27.6912 16.0788 26.4389 16.2959C25.7334 16.418 25.4471 16.1778 25.5041 15.471C25.5258 15.186 25.5652 14.9025 25.5964 14.6176Z" fill="#FCFCFC"/>
</g>
<defs>
<clipPath id="clip0_33_206">
<rect width="51.9837" height="52" fill="white"/>
</clipPath>
</defs>
</svg>
